<?xml version="1.0" standalone="no"?>
<!DOCTYPE svg PUBLIC "-//W3C//DTD SVG 20010904//EN"
 "http://www.w3.org/TR/2001/REC-SVG-20010904/DTD/svg10.dtd">
<svg version="1.0" xmlns="http://www.w3.org/2000/svg"
 width="773.000000pt" height="773.000000pt" viewBox="0 0 773.000000 773.000000"
 preserveAspectRatio="xMidYMid meet">
<metadata>
Created by potrace 1.11, written by Peter Selinger 2001-2013
</metadata>
<g transform="translate(0.000000,773.000000) scale(0.100000,-0.100000)"
fill="#000000" stroke="none">
<path d="M1462 4708 l3 -483 32 -91 c62 -178 124 -256 355 -445 134 -109 525
-433 603 -498 11 -9 72 -59 135 -111 63 -52 120 -99 126 -105 6 -5 30 -26 54
-45 69 -56 293 -240 320 -264 14 -12 124 -103 245 -203 121 -99 290 -239 376
-311 l156 -129 199 164 c109 90 213 176 230 191 17 15 50 43 74 62 54 44 746
615 780 644 14 11 61 51 105 87 79 65 611 505 650 537 11 10 43 35 70 57 113
90 211 222 252 340 45 126 47 150 48 627 1 455 1 456 -20 446 -44 -23 -598
-399 -740 -502 -162 -118 -1121 -871 -1330 -1044 -11 -10 -42 -35 -70 -57 -27
-22 -52 -42 -55 -45 -3 -3 -47 -38 -97 -78 -59 -47 -97 -71 -105 -66 -12 8
-550 437 -575 459 -6 5 -24 20 -40 32 -15 12 -89 70 -164 130 -74 59 -151 120
-170 135 -19 15 -73 58 -120 95 -162 128 -452 352 -530 410 -126 93 -706 489
-787 537 -11 6 -13 -80 -10 -476z"/>
</g>
</svg>
